<svg xmlns="http://www.w3.org/2000/svg" viewBox="0 0 24 24" id="furaffinity">
  <path fill="#F3AA39" d="M23.374 12.152c.003-.774.05-5.143.626-7.152h-7.178l-.26 2.031 2.435.731.031 2.194 2.231.042-.056 2.299 2.171-.145z"></path>
  <path fill="#F3AA39" d="M4.089 18.447c0-.076.002-.153.005-.228v.011c.148-3.736 4.199-4.377 7.241-4.286v-1.076c-.05-.869-.74-1.636-2.74-1.636-1.333 0-2.915.174-3.939.551l.272-2.43c.978-.282 2.08-.555 4.453-.555 4.572 0 5.077 2.068 5.04 4.468l-.021 5.733h2.575c3.303 0 6.021-2.744 6.362-6.029l-2.947.117.052-2.29-2.202-.041-.035-2.472-2.527-.878L16.016 5h-9.43C2.767 5 0 8.315 0 11.949v7.05h4.116a5.514 5.514 0 0 1-.027-.552z"></path>
  <path fill="#F3AA39" d="M11.356 18.361c.056-.217 0-.924 0-1.168l-.049-1.491c-2.021-.087-4.2.328-4.2 2.229 0 .411.169.783.426 1.069h3.312c.248-.145.435-.342.511-.639z"></path>
</svg>
