<?xml version="1.0" encoding="UTF-8" standalone="no"?>
<!DOCTYPE svg PUBLIC "-//W3C//DTD SVG 1.1//EN" "http://www.w3.org/Graphics/SVG/1.1/DTD/svg11.dtd">
<svg width="100%" height="100%" viewBox="0 0 156 156" version="1.1" xmlns="http://www.w3.org/2000/svg" xmlns:xlink="http://www.w3.org/1999/xlink" xml:space="preserve" xmlns:serif="http://www.serif.com/" style="fill-rule:evenodd;clip-rule:evenodd;stroke-linejoin:round;stroke-miterlimit:2;">
    <g id="Artboard1" transform="matrix(1,0,0,1,-30.1202,0)">
        <rect x="30.12" y="0" width="155.345" height="155.345" style="fill:none;"/>
        <clipPath id="_clip1">
            <rect x="30.12" y="0" width="155.345" height="155.345"/>
        </clipPath>
        <g clip-path="url(#_clip1)">
            <g transform="matrix(1,0,0,1,30.1202,0)">
                <path d="M130.345,0C136.975,-0 143.334,2.634 148.023,7.322C152.711,12.011 155.345,18.37 155.345,25L155.345,130.345C155.345,136.975 152.711,143.334 148.023,148.023C143.334,152.711 136.975,155.345 130.345,155.345L25,155.345C18.37,155.345 12.011,152.711 7.322,148.023C2.634,143.334 -0,136.975 -0,130.345L0,25C-0,18.37 2.634,12.011 7.322,7.322C12.011,2.634 18.37,-0 25,0L130.345,0Z" style="fill:rgb(255,235,59);"/>
            </g>
            <g transform="matrix(1.12155,0,0,1.12155,-50.9334,74.992)">
                <path d="M161.64,24.38C160.951,23.879 160.233,23.418 159.49,23C154.85,20.44 153.16,20.26 145.88,20.31C134.72,19.61 129.19,16.17 129.19,16.17C127.545,15.427 125.825,14.86 124.06,14.48C122.766,14.22 121.45,14.079 120.13,14.06L118.57,14.06C119.516,13.133 120.518,12.264 121.57,11.46C122.378,10.285 123.482,9.343 124.77,8.73C124.83,8.73 122.87,5.61 110.77,2.23C106.89,0.86 95,-0.33 92.43,-1.8C87.762,-3.827 84.173,-7.75 82.57,-12.58C82.105,-13.691 81.953,-14.909 82.13,-16.1C83.47,-13.93 85.347,-12.143 87.58,-10.91C86.973,-11.14 86.43,-11.514 86,-12C85.196,-12.979 84.86,-14.262 85.08,-15.51C85.36,-14.91 89.22,-10.63 90.2,-10.44C90.2,-10.44 88.38,-11.96 88.81,-13.77C92.375,-9.991 96.821,-7.153 101.75,-5.51C109.82,-2.89 110.61,-2.41 110.61,-2.41C115.617,-0.713 120.768,0.522 126,1.28C127.705,1.856 129.202,2.925 130.3,4.35C130.9,4.904 131.659,5.254 132.47,5.35C135.901,4.922 139.381,5.101 142.75,5.88C146.119,6.659 154.45,-5.95 170.87,-8C170.57,-7.84 194.22,-12.91 200.99,-19.6C200.578,-18.836 200.124,-18.095 199.63,-17.38C197.664,-14.56 195.082,-12.225 192.08,-10.55C192.52,-10.65 192.98,-10.76 193.47,-10.9C193.96,-11.04 194.66,-11.26 195.18,-11.46C191.816,-8.179 187.886,-5.533 183.58,-3.65C180.233,-2.197 176.698,-1.221 173.08,-0.75C173.911,-0.618 174.759,-0.618 175.59,-0.75C176.421,-0.882 157.4,7 158,12.07C158.16,13.37 159.59,14.28 160.72,14.84C163.356,15.508 166.026,16.029 168.72,16.4C167.34,17.4 163.6,19 161.47,18.77C162.606,19.665 163.908,20.328 165.3,20.72C163.429,21.021 161.512,20.857 159.72,20.24C157.928,19.623 162.2,23.13 161.64,24.38Z"/>
            </g>
        </g>
    </g>
</svg>